<mxfile host="app.diagrams.net" agent="Mozilla/5.0 (Windows NT 10.0; Win64; x64) AppleWebKit/537.36 (KHTML, like Gecko) Chrome/137.0.0.0 Safari/537.36" version="27.1.6">
  <diagram id="f106602c-feb2-e66a-4537-3a34d633f6aa" name="Page-1">
    <mxGraphModel dx="786" dy="417" grid="1" gridSize="10" guides="1" tooltips="1" connect="1" arrows="1" fold="1" page="1" pageScale="1" pageWidth="1169" pageHeight="827" background="none" math="0" shadow="0">
      <root>
        <mxCell id="0" />
        <mxCell id="1" parent="0" />
        <mxCell id="H5XLg-262uGlo7exfHj2-715" value="&#xa;&lt;b style=&quot;forced-color-adjust: none; color: rgb(158, 158, 158); font-family: Helvetica; font-size: 12px; font-style: normal; font-variant-ligatures: normal; font-variant-caps: normal; letter-spacing: normal; orphans: 2; text-align: left; text-indent: 0px; text-transform: none; widows: 2; word-spacing: 0px; -webkit-text-stroke-width: 0px; white-space: nowrap; background-color: rgb(236, 236, 236); text-decoration-thickness: initial; text-decoration-style: initial; text-decoration-color: initial;&quot;&gt;&lt;font style=&quot;forced-color-adjust: none; font-size: 18px;&quot;&gt;資料儲存&lt;/font&gt;&lt;/b&gt;&#xa;&#xa;" style="fillColor=#F6F6F6;strokeColor=none;shadow=0;gradientColor=none;fontSize=14;align=left;spacing=10;fontColor=#717171;9E9E9E;verticalAlign=top;spacingTop=-4;fontStyle=0;spacingLeft=40;html=1;" parent="1" vertex="1">
          <mxGeometry x="10" y="140" width="900" height="420" as="geometry" />
        </mxCell>
        <mxCell id="H5XLg-262uGlo7exfHj2-716" value="" style="shape=mxgraph.gcp2.google_cloud_platform;fillColor=#F6F6F6;strokeColor=none;shadow=0;gradientColor=none;" parent="H5XLg-262uGlo7exfHj2-715" vertex="1">
          <mxGeometry width="23" height="20" relative="1" as="geometry">
            <mxPoint x="20" y="10" as="offset" />
          </mxGeometry>
        </mxCell>
        <mxCell id="H5XLg-262uGlo7exfHj2-720" value="&lt;span style=&quot;font-size: 18px;&quot;&gt;&lt;b&gt;排程管理&lt;/b&gt;&lt;/span&gt;" style="rounded=1;absoluteArcSize=1;arcSize=2;html=1;strokeColor=#4284F3;gradientColor=none;shadow=0;dashed=1;fontSize=12;fontColor=#9E9E9E;align=left;verticalAlign=top;spacing=10;spacingTop=-4;fillColor=none;dashPattern=1 2;strokeWidth=2;" parent="H5XLg-262uGlo7exfHj2-715" vertex="1">
          <mxGeometry y="70" width="180" height="280" as="geometry" />
        </mxCell>
        <mxCell id="Xjk4U9Hp8aF-foOd5PCK-2" value="&lt;font style=&quot;font-size: 18px;&quot;&gt;&lt;b&gt;資料收集&lt;/b&gt;&lt;/font&gt;" style="rounded=1;absoluteArcSize=1;arcSize=2;html=1;strokeColor=#4284F3;gradientColor=none;shadow=0;dashed=1;fontSize=12;fontColor=#9E9E9E;align=left;verticalAlign=top;spacing=10;spacingTop=-4;fillColor=none;dashPattern=1 2;strokeWidth=2;" vertex="1" parent="H5XLg-262uGlo7exfHj2-715">
          <mxGeometry x="220" y="70" width="180" height="280" as="geometry" />
        </mxCell>
        <mxCell id="H5XLg-262uGlo7exfHj2-719" value="&lt;b&gt;&lt;font style=&quot;font-size: 18px;&quot;&gt;資料儲存&lt;/font&gt;&lt;/b&gt;" style="rounded=1;absoluteArcSize=1;arcSize=2;html=1;strokeColor=#4284F3;gradientColor=none;shadow=0;dashed=1;fontSize=12;fontColor=#9E9E9E;align=left;verticalAlign=top;spacing=10;spacingTop=-4;fillColor=none;dashPattern=1 2;strokeWidth=2;" parent="H5XLg-262uGlo7exfHj2-715" vertex="1">
          <mxGeometry x="440" y="70" width="190" height="280" as="geometry" />
        </mxCell>
        <mxCell id="Xjk4U9Hp8aF-foOd5PCK-5" value="&lt;b&gt;&lt;font style=&quot;font-size: 18px;&quot;&gt;資料讀取&lt;/font&gt;&lt;/b&gt;" style="rounded=1;absoluteArcSize=1;arcSize=2;html=1;strokeColor=#4284F3;gradientColor=none;shadow=0;dashed=1;fontSize=12;fontColor=#9E9E9E;align=left;verticalAlign=top;spacing=10;spacingTop=-4;fillColor=none;dashPattern=1 2;strokeWidth=2;" vertex="1" parent="H5XLg-262uGlo7exfHj2-715">
          <mxGeometry x="670" y="70" width="190" height="280" as="geometry" />
        </mxCell>
        <mxCell id="H5XLg-262uGlo7exfHj2-721" value="Architecture: 架構圖" style="fillColor=#4DA1F5;strokeColor=none;shadow=1;gradientColor=none;fontSize=14;align=left;spacingLeft=50;fontColor=#ffffff;html=1;" parent="1" vertex="1">
          <mxGeometry x="215" y="70" width="740" height="40" as="geometry" />
        </mxCell>
      </root>
    </mxGraphModel>
  </diagram>
</mxfile>
